<?xml version="1.0" encoding="utf-8"?>
<!-- Generator: Adobe Illustrator 26.5.0, SVG Export Plug-In . SVG Version: 6.00 Build 0)  -->
<svg version="1.1" id="Layer_1" xmlns="http://www.w3.org/2000/svg" xmlns:xlink="http://www.w3.org/1999/xlink" x="0px" y="0px"
	 viewBox="0 0 146.5 42" style="enable-background:new 0 0 146.5 42;" xml:space="preserve">
<style type="text/css">
	.st0{fill:#101D33;}
	.st1{fill:url(#SVGID_1_);}
	.st2{opacity:0.8;fill:#FFFFFF;}
	.st3{fill:url(#SVGID_00000112600947404166056990000014573383102253803919_);}
</style>
<g>
	<g>
		<path class="st0" d="M43.8,35.9c-0.9,0-1.7-0.1-2.4-0.3v-3.4c0.7,0.2,1.3,0.3,1.9,0.3c0.9,0,1.5-0.3,1.9-0.8
			c0.4-0.6,0.6-1.4,0.6-2.6v-18h4.1v17.9c0,2.2-0.5,3.9-1.5,5.1S45.8,35.9,43.8,35.9z"/>
		<path class="st0" d="M64.8,30.3l-0.5-1.9h-0.2c-0.4,0.7-1,1.2-1.8,1.6c-0.8,0.4-1.7,0.6-2.7,0.6c-1.7,0-3-0.5-3.9-1.4
			c-0.9-0.9-1.3-2.2-1.3-4v-9.6h4v8.6c0,1.1,0.2,1.8,0.6,2.4c0.4,0.5,1,0.8,1.8,0.8c1.1,0,1.9-0.4,2.4-1.1c0.5-0.7,0.7-2,0.7-3.7
			v-6.9h4v14.7H64.8z"/>
		<path class="st0" d="M82.3,25.9c0,1.5-0.5,2.6-1.6,3.4c-1,0.8-2.6,1.2-4.7,1.2c-1.1,0-2-0.1-2.7-0.2c-0.8-0.1-1.5-0.4-2.1-0.6
			v-3.3c0.7,0.3,1.6,0.6,2.5,0.9c0.9,0.2,1.7,0.4,2.5,0.4c1.4,0,2.2-0.4,2.2-1.3c0-0.3-0.1-0.6-0.3-0.8c-0.2-0.2-0.5-0.4-1-0.7
			c-0.5-0.2-1.1-0.5-1.9-0.9c-1.1-0.5-2-0.9-2.5-1.3c-0.5-0.4-0.9-0.9-1.2-1.4c-0.2-0.5-0.4-1.2-0.4-1.9c0-1.3,0.5-2.3,1.5-3
			c1-0.7,2.4-1.1,4.3-1.1c1.8,0,3.5,0.4,5.2,1.2l-1.2,2.9c-0.7-0.3-1.4-0.6-2.1-0.8c-0.6-0.2-1.3-0.3-2-0.3c-1.2,0-1.8,0.3-1.8,1
			c0,0.4,0.2,0.7,0.6,0.9c0.4,0.3,1.2,0.7,2.5,1.2c1.1,0.5,2,0.9,2.5,1.3c0.5,0.4,0.9,0.9,1.2,1.4C82.2,24.6,82.3,25.2,82.3,25.9z"
			/>
		<path class="st0" d="M91.6,27.4c0.7,0,1.5-0.2,2.5-0.5v3c-1,0.4-2.2,0.7-3.7,0.7c-1.6,0-2.8-0.4-3.5-1.2c-0.7-0.8-1.1-2-1.1-3.6
			v-7.1h-1.9V17l2.2-1.3l1.2-3.1h2.6v3.1h4.1v3h-4.1v7.1c0,0.6,0.2,1,0.5,1.3C90.6,27.2,91.1,27.4,91.6,27.4z"/>
		<path class="st0" d="M114.4,30.3h-5.2l-8.3-14.5h-0.1c0.2,2.6,0.2,4.4,0.2,5.5v9h-3.6V11.1h5.1l8.3,14.3h0.1
			c-0.1-2.5-0.2-4.3-0.2-5.3v-9.1h3.7V30.3z"/>
		<path class="st0" d="M123.2,30.3h-4V11.1h11v3.3h-7v4.9h6.5v3.3h-6.5V30.3z"/>
		<path class="st0" d="M141.3,30.3h-4.1V14.5H132v-3.4h14.5v3.4h-5.2V30.3z"/>
	</g>
	<g>
		
			<linearGradient id="SVGID_1_" gradientUnits="userSpaceOnUse" x1="12.0966" y1="3.5483" x2="26.3586" y2="47.7371" gradientTransform="matrix(1 0 0 -1 0 44)">
			<stop  offset="0" style="stop-color:#A29CE0"/>
			<stop  offset="0.29" style="stop-color:#7236AD"/>
			<stop  offset="0.35" style="stop-color:#804BB5"/>
			<stop  offset="0.48" style="stop-color:#A29CE0"/>
			<stop  offset="0.61" style="stop-color:#5A52B5"/>
			<stop  offset="0.7" style="stop-color:#4239AB"/>
			<stop  offset="0.74" style="stop-color:#4239AB"/>
			<stop  offset="1" style="stop-color:#A29CE0"/>
		</linearGradient>
		<polygon class="st1" points="0,11 0,32.1 18.2,42.5 36.4,32.1 36.4,11 18.2,0.5 		"/>
		<polygon class="st2" points="2.2,12.3 2.2,30.8 18.2,40 34.2,30.8 34.2,12.3 18.2,3.1 		"/>
		
			<linearGradient id="SVGID_00000138574633621993854660000017506318148987157384_" gradientUnits="userSpaceOnUse" x1="4.9725" y1="22.316" x2="31.0012" y2="22.316" gradientTransform="matrix(1 0 0 -1 0 44)">
			<stop  offset="0" style="stop-color:#A29CE0"/>
			<stop  offset="0.29" style="stop-color:#7236AD"/>
			<stop  offset="0.35" style="stop-color:#804BB5"/>
			<stop  offset="0.48" style="stop-color:#A29CE0"/>
			<stop  offset="0.61" style="stop-color:#5A52B5"/>
			<stop  offset="0.7" style="stop-color:#4239AB"/>
			<stop  offset="0.74" style="stop-color:#4239AB"/>
			<stop  offset="1" style="stop-color:#A29CE0"/>
		</linearGradient>
		<path style="fill:url(#SVGID_00000138574633621993854660000017506318148987157384_);" d="M17.2,34.1c0-0.2,0-0.3,0-0.4
			c-0.1-3.8,0.1-7.5-0.2-11.4c-0.1-1,0.2-2,0.2-2.9c0-1.6,0-3.2,0-4.8l0,0c0-1.7,0-3.5,0-5.2c0-1.3-0.9-1.9-2-1.2
			c-1.9,1.1-3.8,2.2-5.7,3.3c-0.4,0.3-0.6,0.6-0.6,1.1c0,0.8,0,1.7,0,2.5c0,0.7,0.4,0.9,1,0.6c0.7-0.4,1.4-0.7,2.1-1
			c0.8-0.4,1.1-0.3,1.1,0.7c0,2.1,0.1,4.2,0,6.3c-0.1,2,0,4.1,0,6.2c0,1.1-0.2,1.2-1.2,0.7c-0.7-0.4-1.4-0.7-2.1-1
			c-0.6-0.3-0.8-0.7-0.9-1.3c0-1.8-0.2-3.6-0.1-5.3c0-0.6-0.3-1-0.9-1s-1.2,0-1.8,0C5.1,20,5,20.1,5,21.1c0,1.2,0.1,2.3,0.1,3.5
			c0,1.1-0.1,2.1-0.1,3.2c0,1,0.4,1.7,1.2,2.1c0.9,0.4,1.7,1,2.6,1.5c2.1,1.2,4.4,2.6,6.5,3.8C16.3,35.8,17.1,35.3,17.2,34.1z
			 M31,27.7c0-2-0.1-3.9,0-5.9c0-0.4-0.2-0.9-0.1-1.3c0.3-1.6,0.1-3.2,0.2-4.9c0-1-0.4-1.7-1.2-2.1c-0.5-0.3-1.1-0.6-1.6-0.9
			c-0.8-0.4-1.1-0.4-1.1,0.6c0,2.1,0,4.3,0,6.4c0,0.4,0.1,0.8,0.1,1.2c0,0.2,0,0.4-0.3,0.4s-0.2-0.3-0.3-0.4
			c-0.4-0.9-0.5-1.8-0.8-2.7c-0.9-2.7-1.8-5.3-2.7-8c-0.1-0.3-0.3-0.6-0.5-0.8c-0.7-0.4-1.4-0.9-2.2-1.2c-0.9-0.4-1.7,0.1-1.8,1.1
			c0,0.3,0,0.4,0,0.7c0.1,3.8-0.2,7.6,0.2,11.5c0.2,1.8-0.1,3.6-0.1,5.3c0,1.1,0,2,0,3.1l0,0c0,1.5,0,2.9,0,4.4c0,1,0.9,1.5,1.8,1.1
			c0.5-0.3,1-0.6,1.5-0.9c0.6-0.4,0.9-0.9,0.9-1.6c0-2.1,0-4.3-0.1-6.4c-0.1-1.2,0.1-2.5-0.1-3.7c0-0.2-0.1-0.4,0.2-0.4
			c0.2,0,0.3,0.2,0.4,0.4c0.1,1,0.7,1.7,1.1,2.6c0.7,2,1.6,3.8,2.4,5.7c0.2,0.5,0.5,0.6,1,0.3c0.6-0.4,1.2-0.7,1.9-1.1
			C30.5,29.5,31,28.8,31,27.7z"/>
	</g>
</g>
</svg>
